<svg width="441.70625px" height="167.62373046874998px" xmlns="http://www.w3.org/2000/svg" viewBox="29.146874999999994 -8.811865234374991 441.70625 167.62373046874998" style="background: rgba(255, 255, 255, 0);" preserveAspectRatio="xMidYMid"><defs><filter id="editing-hole" x="-100%" y="-100%" width="300%" height="300%"><feFlood flood-color="#000000" result="black"></feFlood><feMorphology operator="dilate" radius="2" in="SourceGraphic" result="erode"></feMorphology><feGaussianBlur in="erode" stdDeviation="4" result="blur"></feGaussianBlur><feOffset in="blur" dx="2" dy="2" result="offset"></feOffset><feComposite operator="atop" in="offset" in2="black" result="merge"></feComposite><feComposite operator="in" in="merge" in2="SourceGraphic" result="inner-shadow"></feComposite></filter></defs><g filter="url(#editing-hole)"><g transform="translate(96.05656433105469, 106.16093826293945)"><path d="M48.92-47.73L48.71-47.88L48.71-47.88Q48.92-48.56 49.14-49.52L49.14-49.52L49.14-49.52Q49.36-50.48 49.36-51.67L49.36-51.67L49.36-51.67Q49.36-53.19 48.47-54.09L48.47-54.09L48.47-54.09Q47.59-54.99 45.74-54.99L45.74-54.99L45.74-54.99Q42.67-54.99 40.07-53.42L40.07-53.42L40.07-53.42Q37.47-51.85 35.27-49.12L35.27-49.12L35.27-49.12Q33.06-46.39 31.25-42.67L31.25-42.67L31.25-42.67Q29.45-38.95 27.97-34.67L27.97-34.67L27.97-34.67Q26.49-30.39 25.33-25.74L25.33-25.74L25.33-25.74Q24.17-21.10 23.29-16.48L23.29-16.48L23.29-16.48Q22.40-11.85 21.75-7.44L21.75-7.44L21.75-7.44Q21.10-3.04 20.63 0.72L20.63 0.72L20.63 0.72Q20.60 0.98 20.58 1.35L20.58 1.35L20.58 1.35Q20.56 1.73 20.43 2.15L20.43 2.15L20.43 2.15Q20.31 2.57 20.04 2.96L20.04 2.96L20.04 2.96Q19.76 3.36 19.22 3.61L19.22 3.61L19.22 3.61Q17.89 4.37 17.78 3.47L17.78 3.47L17.78 3.47Q17.52 1.08 17.22-1.93L17.22-1.93L17.22-1.93Q16.91-4.95 16.46-8.26L16.46-8.26L16.46-8.26Q16.01-11.56 15.45-14.98L15.45-14.98L15.45-14.98Q14.89-18.39 14.16-21.59L14.16-21.59L14.16-21.59Q13.44-24.79 12.54-27.61L12.54-27.61L12.54-27.61Q11.63-30.42 10.53-32.54L10.53-32.54L10.53-32.54Q9.43-34.65 8.11-35.86L8.11-35.86L8.11-35.86Q6.79-37.07 5.24-37.07L5.24-37.07L5.24-37.07Q3.47-37.07 2.29-36.08L2.29-36.08L2.29-36.08Q1.12-35.08 1.12-33.24L1.12-33.24L1.12-33.24Q1.12-32.12 1.52-31.33L1.52-31.33L1.52-31.33Q1.92-30.53 2.75-29.81L2.75-29.81L2.60-29.67L2.60-29.67Q1.26-30.28 0.63-31.44L0.63-31.44L0.63-31.44Q0-32.59 0-33.82L0-33.82L0-33.82Q0-34.90 0.42-35.86L0.42-35.86L0.42-35.86Q0.83-36.82 1.59-37.52L1.59-37.52L1.59-37.52Q2.35-38.23 3.38-38.64L3.38-38.64L3.38-38.64Q4.41-39.06 5.64-39.06L5.64-39.06L5.64-39.06Q7.55-39.06 9.11-37.78L9.11-37.78L9.11-37.78Q10.66-36.49 11.92-34.34L11.92-34.34L11.92-34.34Q13.19-32.19 14.18-29.34L14.18-29.34L14.18-29.34Q15.18-26.49 15.93-23.36L15.93-23.36L15.93-23.36Q16.69-20.23 17.25-17.00L17.25-17.00L17.25-17.00Q17.81-13.77 18.23-10.82L18.23-10.82L18.23-10.82Q18.64-7.88 18.95-5.42L18.95-5.42L18.95-5.42Q19.26-2.96 19.48-1.41L19.48-1.41L19.48-1.41Q20.05-5.17 20.79-9.56L20.79-9.56L20.79-9.56Q21.54-13.95 22.51-18.57L22.51-18.57L22.51-18.57Q23.49-23.20 24.71-27.86L24.71-27.86L24.71-27.86Q25.94-32.52 27.48-36.82L27.48-36.82L27.48-36.82Q29.01-41.12 30.89-44.86L30.89-44.86L30.89-44.86Q32.77-48.60 35.03-51.36L35.03-51.36L35.03-51.36Q37.29-54.13 39.98-55.70L39.98-55.70L39.98-55.70Q42.67-57.27 45.82-57.27L45.82-57.27L45.82-57.27Q46.76-57.27 47.64-56.98L47.64-56.98L47.64-56.98Q48.53-56.69 49.23-56.11L49.23-56.11L49.23-56.11Q49.94-55.54 50.35-54.65L50.35-54.65L50.35-54.65Q50.77-53.77 50.77-52.61L50.77-52.61L50.77-52.61Q50.77-51.81 50.53-51.02L50.53-51.02L50.53-51.02Q50.30-50.22 49.99-49.56L49.99-49.56L49.99-49.56Q49.68-48.89 49.38-48.40L49.38-48.40L49.38-48.40Q49.07-47.91 48.92-47.73L48.92-47.73ZM32.48-15.03L32.48-15.03L32.48-15.03Q32.77-15.03 33.04-14.87L33.04-14.87L33.04-14.87Q33.31-14.71 33.51-14.53L33.51-14.53L33.51-14.53Q33.71-14.34 33.84-14.15L33.84-14.15L33.84-14.15Q33.96-13.95 33.96-13.91L33.96-13.91L33.96-13.91Q33.96-13.88 33.87-13.53L33.87-13.53L33.87-13.53Q33.78-13.19 33.66-12.39L33.66-12.39L33.66-12.39Q33.53-11.60 33.44-10.32L33.44-10.32L33.44-10.32Q33.35-9.03 33.35-7.12L33.35-7.12L33.35-7.12Q33.35-4.55 33.98-3.54L33.98-3.54L33.98-3.54Q34.62-2.53 35.52-2.53L35.52-2.53L35.52-2.53Q36.42-2.53 37.31-3.07L37.31-3.07L37.31-3.07Q38.19-3.61 38.99-4.48L38.99-4.48L38.99-4.48Q39.78-5.35 40.49-6.45L40.49-6.45L40.49-6.45Q41.19-7.55 41.73-8.67L41.73-8.67L41.95-8.53L41.95-8.53Q41.81-8.17 41.52-7.43L41.52-7.43L41.52-7.43Q41.23-6.68 40.79-5.82L40.79-5.82L40.79-5.82Q40.36-4.95 39.76-4.03L39.76-4.03L39.76-4.03Q39.17-3.11 38.39-2.37L38.39-2.37L38.39-2.37Q37.61-1.63 36.69-1.14L36.69-1.14L36.69-1.14Q35.77-0.65 34.69-0.65L34.69-0.65L34.69-0.65Q33.93-0.65 33.30-0.94L33.30-0.94L33.30-0.94Q32.66-1.23 32.18-2.01L32.18-2.01L32.18-2.01Q31.69-2.78 31.42-4.16L31.42-4.16L31.42-4.16Q31.15-5.53 31.15-7.70L31.15-7.70L31.15-7.70Q31.15-8.82 31.24-10.10L31.24-10.10L31.24-10.10Q31.33-11.38 31.49-12.48L31.49-12.48L31.49-12.48Q31.65-13.59 31.91-14.31L31.91-14.31L31.91-14.31Q32.16-15.03 32.48-15.03ZM33.35-23.99L33.35-23.99L33.35-23.99Q34.25-23.99 34.65-23.36L34.65-23.36L34.65-23.36Q35.05-22.73 35.05-21.82L35.05-21.82L35.05-21.82Q35.05-20.78 34.47-20.20L34.47-20.20L34.47-20.20Q33.89-19.62 33.06-19.62L33.06-19.62L33.06-19.62Q32.45-19.62 31.87-20.09L31.87-20.09L31.87-20.09Q31.29-20.56 31.29-21.61L31.29-21.61L31.29-21.61Q31.29-22.76 31.87-23.38L31.87-23.38L31.87-23.38Q32.45-23.99 33.35-23.99ZM53.26-7.99L53.48-7.84L53.48-7.84Q53.22-7.12 52.68-5.89L52.68-5.89L52.68-5.89Q52.14-4.66 51.22-3.49L51.22-3.49L51.22-3.49Q50.30-2.31 48.98-1.48L48.98-1.48L48.98-1.48Q47.66-0.65 45.92-0.72L45.92-0.72L45.92-0.72Q44.37-0.83 43.32-1.63L43.32-1.63L43.32-1.63Q42.28-2.42 41.63-4.06L41.63-4.06L41.63-4.06Q40.97-5.71 40.69-8.22L40.69-8.22L40.69-8.22Q40.40-10.73 40.40-14.27L40.40-14.27L40.40-14.27Q40.40-17.67 40.58-20.40L40.58-20.40L40.58-20.40Q40.76-23.13 41.05-25.22L41.05-25.22L41.05-25.22Q39.38-25.15 38.14-25.15L38.14-25.15L38.14-25.15Q36.89-25.15 36.39-25.15L36.39-25.15L36.39-25.15Q35.34-25.15 34.31-25.29L34.31-25.29L34.31-25.29Q33.28-25.44 32.38-25.80L32.38-25.80L32.38-25.80Q31.47-26.16 30.71-26.76L30.71-26.76L30.71-26.76Q29.95-27.35 29.45-28.26L29.45-28.26L29.59-28.58L29.59-28.58Q29.63-28.51 29.94-28.24L29.94-28.24L29.94-28.24Q30.24-27.97 31.04-27.68L31.04-27.68L31.04-27.68Q31.83-27.39 33.21-27.15L33.21-27.15L33.21-27.15Q34.58-26.92 36.75-26.92L36.75-26.92L41.26-26.92L41.26-26.92Q41.84-30.17 42.44-31.78L42.44-31.78L42.44-31.78Q43.03-33.39 43.25-33.82L43.25-33.82L43.25-33.82Q43.54-34.43 44.10-34.87L44.10-34.87L44.10-34.87Q44.66-35.30 45.06-35.30L45.06-35.30L45.06-35.30Q45.82-35.30 46.29-33.86L46.29-33.86L46.29-33.86Q46.76-32.41 46.76-29.38L46.76-29.38L46.76-29.38Q46.76-28.83 46.72-28.24L46.72-28.24L46.72-28.24Q46.68-27.64 46.68-27.03L46.68-27.03L46.68-27.03Q48.42-27.06 49.99-27.10L49.99-27.10L49.99-27.10Q51.56-27.14 52.81-27.17L52.81-27.17L52.81-27.17Q54.05-27.21 54.90-27.24L54.90-27.24L54.90-27.24Q55.75-27.28 56.01-27.32L56.01-27.32L56.01-27.32Q56.19-27.32 56.62-27.35L56.62-27.35L56.62-27.35Q57.05-27.39 57.20-27.39L57.20-27.39L57.20-27.39Q57.78-27.39 57.78-27.03L57.78-27.03L57.78-27.03Q57.78-26.52 57.47-26.11L57.47-26.11L57.47-26.11Q57.16-25.69 56.22-25.62L56.22-25.62L56.22-25.62Q56.04-25.58 55.16-25.56L55.16-25.56L55.16-25.56Q54.27-25.55 52.93-25.51L52.93-25.51L52.93-25.51Q51.60-25.47 49.94-25.42L49.94-25.42L49.94-25.42Q48.27-25.37 46.54-25.29L46.54-25.29L46.54-25.29Q46.18-22.22 45.24-18.59L45.24-18.59L45.24-18.59Q44.30-14.96 42.60-10.80L42.60-10.80L42.60-10.80Q42.75-8.42 43.02-6.83L43.02-6.83L43.02-6.83Q43.29-5.24 43.76-4.28L43.76-4.28L43.76-4.28Q44.23-3.32 44.93-2.93L44.93-2.93L44.93-2.93Q45.64-2.53 46.61-2.53L46.61-2.53L46.61-2.53Q47.66-2.53 48.56-2.93L48.56-2.93L48.56-2.93Q49.47-3.32 50.21-3.92L50.21-3.92L50.21-3.92Q50.95-4.52 51.51-5.22L51.51-5.22L51.51-5.22Q52.07-5.93 52.45-6.54L52.45-6.54L52.45-6.54Q52.83-7.15 53.02-7.55L53.02-7.55L53.02-7.55Q53.22-7.95 53.26-7.99L53.26-7.99ZM45.13-25.29L45.13-25.29L45.13-25.29Q44.52-25.29 43.94-25.26L43.94-25.26L43.94-25.26Q43.36-25.22 42.75-25.22L42.75-25.22L42.75-25.22Q42.64-23.16 42.58-20.99L42.58-20.99L42.58-20.99Q42.53-18.83 42.53-16.87L42.53-16.87L42.53-12.79L42.53-12.79Q43.58-16.08 44.24-19.19L44.24-19.19L44.24-19.19Q44.91-22.29 45.13-25.29ZM42.89-26.92L42.89-26.92L42.89-26.92Q43.47-26.92 44.06-26.97L44.06-26.97L44.06-26.97Q44.66-27.03 45.27-27.03L45.27-27.03L45.27-28.26L45.27-28.26Q45.27-30.06 45.17-31.15L45.17-31.15L45.17-31.15Q45.06-32.23 44.93-32.83L44.93-32.83L44.93-32.83Q44.80-33.42 44.64-33.62L44.64-33.62L44.64-33.62Q44.48-33.82 44.37-33.82L44.37-33.82L44.37-33.82Q44.08-33.82 43.87-33.28L43.87-33.28L43.87-33.28Q43.65-32.74 43.47-31.81L43.47-31.81L43.47-31.81Q43.29-30.89 43.14-29.63L43.14-29.63L43.14-29.63Q43.00-28.36 42.89-26.92ZM64.75-12.50L64.75-12.50L64.75-12.50Q64.42-12.50 64.15-12.88L64.15-12.88L64.15-12.88Q63.88-13.26 63.45-13.69L63.45-13.69L63.45-13.69Q63.02-14.13 62.35-14.51L62.35-14.51L62.35-14.51Q61.68-14.89 60.59-14.89L60.59-14.89L60.59-14.89Q59.08-14.89 57.78-14.11L57.78-14.11L57.78-14.11Q56.48-13.33 55.54-12.16L55.54-12.16L55.54-12.16Q54.60-10.98 54.07-9.59L54.07-9.59L54.07-9.59Q53.55-8.20 53.55-6.97L53.55-6.97L53.55-6.97Q53.55-5.06 54.52-3.83L54.52-3.83L54.52-3.83Q55.50-2.60 57.13-2.60L57.13-2.60L57.13-2.60Q58.39-2.60 59.35-3.09L59.35-3.09L59.35-3.09Q60.31-3.58 60.96-4.37L60.96-4.37L60.96-4.37Q60.74-5.35 60.74-6.79L60.74-6.79L60.74-6.79Q60.74-8.35 60.97-9.32L60.97-9.32L60.97-9.32Q61.21-10.30 61.55-10.84L61.55-10.84L61.55-10.84Q61.90-11.38 62.26-11.58L62.26-11.58L62.26-11.58Q62.62-11.78 62.87-11.78L62.87-11.78L62.87-11.78Q63.16-11.78 63.54-11.38L63.54-11.38L63.54-11.38Q63.92-10.98 63.92-9.97L63.92-9.97L63.92-9.97Q63.92-8.71 63.47-7.32L63.47-7.32L63.47-7.32Q63.02-5.93 62.22-4.66L62.22-4.66L62.22-4.66Q62.65-3.54 63.56-3.04L63.56-3.04L63.56-3.04Q64.46-2.53 65.62-2.53L65.62-2.53L65.62-2.53Q66.63-2.53 67.51-2.98L67.51-2.98L67.51-2.98Q68.40-3.43 69.18-4.19L69.18-4.19L69.18-4.19Q69.95-4.95 70.64-5.94L70.64-5.94L70.64-5.94Q71.33-6.94 71.90-7.99L71.90-7.99L72.12-7.84L72.12-7.84Q71.69-6.47 70.96-5.17L70.96-5.17L70.96-5.17Q70.24-3.87 69.30-2.85L69.30-2.85L69.30-2.85Q68.36-1.84 67.26-1.25L67.26-1.25L67.26-1.25Q66.16-0.65 64.97-0.65L64.97-0.65L64.97-0.65Q64.06-0.65 63.00-1.25L63.00-1.25L63.00-1.25Q61.93-1.84 61.25-3.40L61.25-3.40L61.25-3.40Q60.13-2.06 58.68-1.17L58.68-1.17L58.68-1.17Q57.23-0.29 55.57-0.29L55.57-0.29L55.57-0.29Q54.63-0.29 53.87-0.72L53.87-0.72L53.87-0.72Q53.12-1.16 52.59-1.88L52.59-1.88L52.59-1.88Q52.07-2.60 51.78-3.58L51.78-3.58L51.78-3.58Q51.49-4.55 51.49-5.64L51.49-5.64L51.49-5.64Q51.49-7.48 52.30-9.32L52.30-9.32L52.30-9.32Q53.12-11.17 54.47-12.65L54.47-12.65L54.47-12.65Q55.83-14.13 57.58-15.05L57.58-15.05L57.58-15.05Q59.33-15.97 61.25-15.97L61.25-15.97L61.25-15.97Q62.65-15.97 63.61-15.66L63.61-15.66L63.61-15.66Q64.57-15.36 65.15-14.94L65.15-14.94L65.15-14.94Q65.73-14.53 65.98-14.09L65.98-14.09L65.98-14.09Q66.23-13.66 66.23-13.41L66.23-13.41L66.23-13.41Q66.23-12.90 65.71-12.70L65.71-12.70L65.71-12.70Q65.18-12.50 64.75-12.50ZM61.71-7.70L61.71-7.70L61.71-7.70Q61.71-6.50 61.93-5.64L61.93-5.64L61.93-5.64Q62.47-6.65 62.73-7.71L62.73-7.71L62.73-7.71Q62.98-8.78 62.98-9.54L62.98-9.54L62.98-9.54Q62.98-10.44 62.65-10.44L62.65-10.44L62.65-10.44Q62.33-10.44 62.02-9.65L62.02-9.65L62.02-9.65Q61.71-8.85 61.71-7.70ZM84.26-7.99L84.48-7.84L84.48-7.84Q84.41-7.59 83.92-6.49L83.92-6.49L83.92-6.49Q83.43-5.38 82.58-4.14L82.58-4.14L82.58-4.14Q81.73-2.89 80.56-1.90L80.56-1.90L80.56-1.90Q79.38-0.90 77.90-0.90L77.90-0.90L77.90-0.90Q75.99-0.90 74.43-2.37L74.43-2.37L74.43-2.37Q72.88-3.83 71.78-6.52L71.78-6.52L71.78-6.52Q70.68-9.21 70.08-13.04L70.08-13.04L70.08-13.04Q69.48-16.87 69.48-21.61L69.48-21.61L69.48-21.61Q69.48-24.21 69.66-27.08L69.66-27.08L69.66-27.08Q69.84-29.95 70.24-32.74L70.24-32.74L70.24-32.74Q70.64-35.52 71.24-38.05L71.24-38.05L71.24-38.05Q71.83-40.58 72.66-42.49L72.66-42.49L72.66-42.49Q73.49-44.41 74.60-45.55L74.60-45.55L74.60-45.55Q75.70-46.68 77.04-46.68L77.04-46.68L77.04-46.68Q79.02-46.68 79.94-44.26L79.94-44.26L79.94-44.26Q80.87-41.84 80.87-36.78L80.87-36.78L80.87-36.78Q80.87-33.82 80.43-30.15L80.43-30.15L80.43-30.15Q80.00-26.49 78.95-22.66L78.95-22.66L78.95-22.66Q77.58-17.81 76.08-14.40L76.08-14.40L76.08-14.40Q74.58-10.98 73.53-8.96L73.53-8.96L73.53-8.96Q73.93-7.55 74.42-6.40L74.42-6.40L74.42-6.40Q74.90-5.24 75.52-4.39L75.52-4.39L75.52-4.39Q76.13-3.54 76.85-3.07L76.85-3.07L76.85-3.07Q77.58-2.60 78.44-2.60L78.44-2.60L78.44-2.60Q79.53-2.60 80.47-3.25L80.47-3.25L80.47-3.25Q81.41-3.90 82.15-4.77L82.15-4.77L82.15-4.77Q82.89-5.64 83.43-6.54L83.43-6.54L83.43-6.54Q83.97-7.44 84.26-7.99L84.26-7.99ZM71.69-24.14L71.69-24.14L71.69-24.14Q71.69-22.62 71.78-20.87L71.78-20.87L71.78-20.87Q71.87-19.11 72.05-17.31L72.05-17.31L72.05-17.31Q72.23-15.50 72.50-13.69L72.50-13.69L72.50-13.69Q72.77-11.89 73.17-10.23L73.17-10.23L73.17-10.23Q73.93-11.82 74.96-14.31L74.96-14.31L74.96-14.31Q75.99-16.80 76.94-19.93L76.94-19.93L76.94-19.93Q77.90-23.05 78.57-26.70L78.57-26.70L78.57-26.70Q79.24-30.35 79.24-34.25L79.24-34.25L79.24-34.25Q79.24-36.71 79.04-38.75L79.04-38.75L79.04-38.75Q78.84-40.79 78.44-42.26L78.44-42.26L78.44-42.26Q78.05-43.72 77.45-44.53L77.45-44.53L77.45-44.53Q76.85-45.35 76.06-45.35L76.06-45.35L76.06-45.35Q75.30-45.35 74.69-44.28L74.69-44.28L74.69-44.28Q74.07-43.21 73.58-41.48L73.58-41.48L73.58-41.48Q73.10-39.75 72.74-37.51L72.74-37.51L72.74-37.51Q72.37-35.27 72.14-32.92L72.14-32.92L72.14-32.92Q71.90-30.57 71.80-28.27L71.80-28.27L71.80-28.27Q71.69-25.98 71.69-24.14ZM84.80-15.03L84.80-15.03L84.80-15.03Q85.09-15.03 85.36-14.87L85.36-14.87L85.36-14.87Q85.63-14.71 85.83-14.53L85.83-14.53L85.83-14.53Q86.03-14.34 86.16-14.15L86.16-14.15L86.16-14.15Q86.29-13.95 86.29-13.91L86.29-13.91L86.29-13.91Q86.29-13.88 86.19-13.53L86.19-13.53L86.19-13.53Q86.10-13.19 85.98-12.39L85.98-12.39L85.98-12.39Q85.85-11.60 85.76-10.32L85.76-10.32L85.76-10.32Q85.67-9.03 85.67-7.12L85.67-7.12L85.67-7.12Q85.67-4.55 86.30-3.54L86.30-3.54L86.30-3.54Q86.94-2.53 87.84-2.53L87.84-2.53L87.84-2.53Q88.74-2.53 89.63-3.07L89.63-3.07L89.63-3.07Q90.51-3.61 91.31-4.48L91.31-4.48L91.31-4.48Q92.10-5.35 92.81-6.45L92.81-6.45L92.81-6.45Q93.51-7.55 94.05-8.67L94.05-8.67L94.27-8.53L94.27-8.53Q94.13-8.17 93.84-7.43L93.84-7.43L93.84-7.43Q93.55-6.68 93.11-5.82L93.11-5.82L93.11-5.82Q92.68-4.95 92.08-4.03L92.08-4.03L92.08-4.03Q91.49-3.11 90.71-2.37L90.71-2.37L90.71-2.37Q89.93-1.63 89.01-1.14L89.01-1.14L89.01-1.14Q88.09-0.65 87.01-0.65L87.01-0.65L87.01-0.65Q86.25-0.65 85.62-0.94L85.62-0.94L85.62-0.94Q84.98-1.23 84.50-2.01L84.50-2.01L84.50-2.01Q84.01-2.78 83.74-4.16L83.74-4.16L83.74-4.16Q83.47-5.53 83.47-7.70L83.47-7.70L83.47-7.70Q83.47-8.82 83.56-10.10L83.56-10.10L83.56-10.10Q83.65-11.38 83.81-12.48L83.81-12.48L83.81-12.48Q83.97-13.59 84.23-14.31L84.23-14.31L84.23-14.31Q84.48-15.03 84.80-15.03ZM85.67-23.99L85.67-23.99L85.67-23.99Q86.57-23.99 86.97-23.36L86.97-23.36L86.97-23.36Q87.37-22.73 87.37-21.82L87.37-21.82L87.37-21.82Q87.37-20.78 86.79-20.20L86.79-20.20L86.79-20.20Q86.21-19.62 85.38-19.62L85.38-19.62L85.38-19.62Q84.77-19.62 84.19-20.09L84.19-20.09L84.19-20.09Q83.61-20.56 83.61-21.61L83.61-21.61L83.61-21.61Q83.61-22.76 84.19-23.38L84.19-23.38L84.19-23.38Q84.77-23.99 85.67-23.99ZM94.20-15.03L94.20-15.03L94.20-15.03Q94.49-15.03 94.76-14.87L94.76-14.87L94.76-14.87Q95.03-14.71 95.23-14.53L95.23-14.53L95.23-14.53Q95.43-14.34 95.55-14.15L95.55-14.15L95.55-14.15Q95.68-13.95 95.68-13.91L95.68-13.91L95.68-13.91Q95.68-13.88 95.59-13.53L95.59-13.53L95.59-13.53Q95.50-13.19 95.37-12.39L95.37-12.39L95.37-12.39Q95.25-11.60 95.16-10.32L95.16-10.32L95.16-10.32Q95.07-9.03 95.07-7.12L95.07-7.12L95.07-7.12Q95.07-4.55 95.70-3.54L95.70-3.54L95.70-3.54Q96.33-2.53 97.23-2.53L97.23-2.53L97.23-2.53Q98.14-2.53 99.02-3.07L99.02-3.07L99.02-3.07Q99.91-3.61 100.70-4.48L100.70-4.48L100.70-4.48Q101.50-5.35 102.20-6.45L102.20-6.45L102.20-6.45Q102.91-7.55 103.45-8.67L103.45-8.67L103.67-8.53L103.67-8.53Q103.52-8.17 103.23-7.43L103.23-7.43L103.23-7.43Q102.94-6.68 102.51-5.82L102.51-5.82L102.51-5.82Q102.08-4.95 101.48-4.03L101.48-4.03L101.48-4.03Q100.88-3.11 100.11-2.37L100.11-2.37L100.11-2.37Q99.33-1.63 98.41-1.14L98.41-1.14L98.41-1.14Q97.49-0.65 96.40-0.65L96.40-0.65L96.40-0.65Q95.64-0.65 95.01-0.94L95.01-0.94L95.01-0.94Q94.38-1.23 93.89-2.01L93.89-2.01L93.89-2.01Q93.40-2.78 93.13-4.16L93.13-4.16L93.13-4.16Q92.86-5.53 92.86-7.70L92.86-7.70L92.86-7.70Q92.86-8.82 92.95-10.10L92.95-10.10L92.95-10.10Q93.04-11.38 93.20-12.48L93.20-12.48L93.20-12.48Q93.37-13.59 93.62-14.31L93.62-14.31L93.62-14.31Q93.87-15.03 94.20-15.03ZM95.07-23.99L95.07-23.99L95.07-23.99Q95.97-23.99 96.37-23.36L96.37-23.36L96.37-23.36Q96.76-22.73 96.76-21.82L96.76-21.82L96.76-21.82Q96.76-20.78 96.19-20.20L96.19-20.20L96.19-20.20Q95.61-19.62 94.78-19.62L94.78-19.62L94.78-19.62Q94.16-19.62 93.58-20.09L93.58-20.09L93.58-20.09Q93.01-20.56 93.01-21.61L93.01-21.61L93.01-21.61Q93.01-22.76 93.58-23.38L93.58-23.38L93.58-23.38Q94.16-23.99 95.07-23.99ZM159.31 0L159.74 0.58L159.74 0.58Q158.80 1.37 157.77 2.13L157.77 2.13L157.77 2.13Q156.74 2.89 155.61 3.50L155.61 3.50L155.61 3.50Q154.47 4.12 153.28 4.50L153.28 4.50L153.28 4.50Q152.08 4.88 150.85 4.88L150.85 4.88L150.85 4.88Q149.12 4.88 147.66 4.12L147.66 4.12L147.66 4.12Q146.19 3.36 144.93 2.01L144.93 2.01L144.93 2.01Q143.66 0.65 142.60-1.17L142.60-1.17L142.60-1.17Q141.53-3.00 140.63-5.17L140.63-5.17L140.63-5.17Q136.91-2.71 133.08-1.25L133.08-1.25L133.08-1.25Q129.25 0.22 125.85 0.22L125.85 0.22L125.85 0.22Q123.07 0.22 121.06-0.42L121.06-0.42L121.06-0.42Q119.06-1.05 117.76-2.22L117.76-2.22L117.76-2.22Q116.46-3.40 115.82-5.02L115.82-5.02L115.82-5.02Q115.19-6.65 115.19-8.67L115.19-8.67L115.19-8.67Q115.19-11.20 116.15-13.26L116.15-13.26L116.15-13.26Q117.11-15.32 118.71-17.05L118.71-17.05L118.71-17.05Q120.32-18.79 122.42-20.25L122.42-20.25L122.42-20.25Q124.51-21.72 126.81-23.09L126.81-23.09L126.81-23.09Q129.10-24.46 131.42-25.78L131.42-25.78L131.42-25.78Q133.73-27.10 135.75-28.58L135.75-28.58L135.75-28.58Q135.57-30.42 135.52-31.92L135.52-31.92L135.52-31.92Q135.46-33.42 135.46-34.54L135.46-34.54L135.46-34.54Q135.46-35.84 135.75-37.54L135.75-37.54L135.75-37.54Q136.04-39.24 136.73-40.76L136.73-40.76L136.73-40.76Q137.41-42.28 138.59-43.34L138.59-43.34L138.59-43.34Q139.76-44.41 141.53-44.41L141.53-44.41L141.53-44.41Q142.33-44.41 142.92-44.06L142.92-44.06L142.92-44.06Q143.52-43.72 143.90-43.18L143.90-43.18L143.90-43.18Q144.28-42.64 144.46-41.93L144.46-41.93L144.46-41.93Q144.64-41.23 144.64-40.54L144.64-40.54L144.64-40.54Q144.64-38.70 144.13-37.09L144.13-37.09L144.13-37.09Q143.63-35.48 142.76-34.07L142.76-34.07L142.76-34.07Q141.89-32.66 140.70-31.45L140.70-31.45L140.70-31.45Q139.51-30.24 138.14-29.16L138.14-29.16L138.14-29.16Q138.35-26.81 138.71-24.12L138.71-24.12L138.71-24.12Q139.08-21.43 139.62-18.66L139.62-18.66L139.62-18.66Q140.16-15.90 140.90-13.15L140.90-13.15L140.90-13.15Q141.64-10.41 142.58-7.99L142.58-7.99L142.58-7.99Q145.11-9.79 147.30-12.00L147.30-12.00L147.30-12.00Q149.48-14.20 151.07-16.60L151.07-16.60L151.07-16.60Q152.66-19.01 153.56-21.50L153.56-21.50L153.56-21.50Q154.47-23.99 154.47-26.41L154.47-26.41L154.47-26.41Q154.47-28.33 154.05-29.48L154.05-29.48L154.05-29.48Q153.64-30.64 152.70-31.36L152.70-31.36L152.91-31.76L152.91-31.76Q154.94-31.07 155.79-29.57L155.79-29.57L155.79-29.57Q156.64-28.08 156.64-26.05L156.64-26.05L156.64-26.05Q156.64-23.88 155.55-21.39L155.55-21.39L155.55-21.39Q154.47-18.90 152.61-16.37L152.61-16.37L152.61-16.37Q150.75-13.84 148.25-11.36L148.25-11.36L148.25-11.36Q145.76-8.89 142.94-6.79L142.94-6.79L142.94-6.79Q143.81-4.73 144.82-3.02L144.82-3.02L144.82-3.02Q145.83-1.30 147.04-0.05L147.04-0.05L147.04-0.05Q148.25 1.19 149.66 1.90L149.66 1.90L149.66 1.90Q151.07 2.60 152.70 2.60L152.70 2.60L152.70 2.60Q153.60 2.60 154.36 2.51L154.36 2.51L154.36 2.51Q155.12 2.42 155.90 2.15L155.90 2.15L155.90 2.15Q156.67 1.88 157.48 1.37L157.48 1.37L157.48 1.37Q158.30 0.87 159.31 0L159.31 0ZM125.92-2.13L125.92-2.13L125.92-2.13Q129.54-2.06 133.17-3.23L133.17-3.23L133.17-3.23Q136.80-4.41 140.20-6.43L140.20-6.43L140.20-6.43Q139.29-8.92 138.59-11.65L138.59-11.65L138.59-11.65Q137.88-14.38 137.34-17.13L137.34-17.13L137.34-17.13Q136.80-19.87 136.42-22.53L136.42-22.53L136.42-22.53Q136.04-25.18 135.82-27.53L135.82-27.53L135.82-27.53Q133.84-26.20 131.70-24.95L131.70-24.95L131.70-24.95Q129.57-23.70 127.55-22.44L127.55-22.44L127.55-22.44Q125.53-21.17 123.68-19.82L123.68-19.82L123.68-19.82Q121.84-18.46 120.47-16.91L120.47-16.91L120.47-16.91Q119.09-15.36 118.28-13.51L118.28-13.51L118.28-13.51Q117.47-11.67 117.47-9.47L117.47-9.47L117.47-9.47Q117.47-7.26 118.24-5.85L118.24-5.85L118.24-5.85Q119.02-4.44 120.25-3.61L120.25-3.61L120.25-3.61Q121.48-2.78 122.98-2.46L122.98-2.46L122.98-2.46Q124.48-2.13 125.92-2.13ZM137.70-36.86L137.70-36.86L137.70-36.86Q137.70-35.81 137.76-34.15L137.76-34.15L137.76-34.15Q137.81-32.48 137.99-30.42L137.99-30.42L137.99-30.42Q140.12-32.30 141.39-34.52L141.39-34.52L141.39-34.52Q142.65-36.75 142.65-39.67L142.65-39.67L142.65-39.67Q142.65-40.04 142.58-40.50L142.58-40.50L142.58-40.50Q142.51-40.97 142.29-41.37L142.29-41.37L142.29-41.37Q142.07-41.77 141.69-42.04L141.69-42.04L141.69-42.04Q141.32-42.31 140.74-42.31L140.74-42.31L140.74-42.31Q139.76-42.31 139.17-41.82L139.17-41.82L139.17-41.82Q138.57-41.34 138.24-40.56L138.24-40.56L138.24-40.56Q137.92-39.78 137.81-38.81L137.81-38.81L137.81-38.81Q137.70-37.83 137.70-36.86ZM229.59-48.31L229.80-48.71L229.80-48.71Q230.13-48.49 230.56-48.15L230.56-48.15L230.56-48.15Q231.00-47.80 231.41-47.30L231.41-47.30L231.41-47.30Q231.83-46.79 232.12-46.14L232.12-46.14L232.12-46.14Q232.41-45.49 232.41-44.70L232.41-44.70L232.41-44.70Q232.41-43.76 232.08-42.89L232.08-42.89L232.08-42.89Q231.76-42.02 231.05-41.37L231.05-41.37L231.05-41.37Q230.35-40.72 229.24-40.34L229.24-40.34L229.24-40.34Q228.14-39.96 226.63-39.96L226.63-39.96L226.63-39.96Q224.75-39.96 222.89-40.32L222.89-40.32L222.89-40.32Q221.02-40.69 219.13-41.28L219.13-41.28L219.13-41.28Q217.23-41.88 215.30-42.64L215.30-42.64L215.30-42.64Q213.36-43.40 211.38-44.19L211.38-44.19L211.38-44.19Q211.27-32.01 210.60-20.78L210.60-20.78L210.60-20.78Q209.93-9.54 208.49 1.12L208.49 1.12L208.49 1.12Q208.05 2.35 207.64 2.84L207.64 2.84L207.64 2.84Q207.22 3.32 206.86 3.32L206.86 3.32L206.86 3.32Q206.57 3.32 206.43 3.09L206.43 3.09L206.43 3.09Q206.28 2.85 206.28 2.53L206.28 2.53L206.28 2.28L206.28 2.28Q206.93-2.96 207.28-8.00L207.28-8.00L207.28-8.00Q207.62-13.04 207.82-18.05L207.82-18.05L207.82-18.05Q208.02-23.05 208.11-28.17L208.11-28.17L208.11-28.17Q208.20-33.28 208.34-38.70L208.34-38.70L208.34-38.70Q208.41-40.50 208.45-42.08L208.45-42.08L208.45-42.08Q208.49-43.65 208.49-45.27L208.49-45.27L208.49-45.27Q205.60-46.29 202.43-47.01L202.43-47.01L202.43-47.01Q199.27-47.73 195.77-47.73L195.77-47.73L195.77-47.73Q190.67-47.73 186.41-46.77L186.41-46.77L186.41-46.77Q182.15-45.82 179.07-43.68L179.07-43.68L179.07-43.68Q176.00-41.55 174.30-38.14L174.30-38.14L174.30-38.14Q172.61-34.72 172.61-29.81L172.61-29.81L172.61-29.81Q172.61-28.00 173.15-26.12L173.15-26.12L173.15-26.12Q173.69-24.25 174.94-22.71L174.94-22.71L174.94-22.71Q176.18-21.17 178.19-20.20L178.19-20.20L178.19-20.20Q180.19-19.22 183.12-19.22L183.12-19.22L183.12-19.22Q185.65-19.22 187.42-19.96L187.42-19.96L187.42-19.96Q189.19-20.70 190.42-21.75L190.42-21.75L190.42-21.75Q191.65-22.80 192.43-23.94L192.43-23.94L192.43-23.94Q193.20-25.08 193.71-25.91L193.71-25.91L194.21-25.62L194.21-25.62Q193.96-25.11 193.51-24.30L193.51-24.30L193.51-24.30Q193.06-23.49 192.35-22.55L192.35-22.55L192.35-22.55Q191.65-21.61 190.67-20.63L190.67-20.63L190.67-20.63Q189.70-19.66 188.41-18.86L188.41-18.86L188.41-18.86Q187.13-18.07 185.54-17.58L185.54-17.58L185.54-17.58Q183.95-17.09 182.00-17.09L182.00-17.09L182.00-17.09Q179.51-17.09 177.45-17.98L177.45-17.98L177.45-17.98Q175.39-18.86 173.93-20.47L173.93-20.47L173.93-20.47Q172.46-22.08 171.65-24.35L171.65-24.35L171.65-24.35Q170.84-26.63 170.84-29.45L170.84-29.45L170.84-29.45Q170.84-32.88 171.83-35.77L171.83-35.77L171.83-35.77Q172.82-38.66 174.58-40.97L174.58-40.97L174.58-40.97Q176.33-43.29 178.71-45.04L178.71-45.04L178.71-45.04Q181.10-46.79 183.86-47.97L183.86-47.97L183.86-47.97Q186.63-49.14 189.64-49.74L189.64-49.74L189.64-49.74Q192.66-50.33 195.70-50.33L195.70-50.33L195.70-50.33Q199.31-50.33 202.49-49.65L202.49-49.65L202.49-49.65Q205.67-48.96 208.56-47.95L208.56-47.95L208.56-51.89L208.56-51.89Q208.56-52.39 208.78-52.77L208.78-52.77L208.78-52.77Q208.99-53.15 209.34-53.39L209.34-53.39L209.34-53.39Q209.68-53.62 210.08-53.75L210.08-53.75L210.08-53.75Q210.47-53.87 210.80-53.87L210.80-53.87L210.80-53.87Q211.09-53.87 211.27-53.77L211.27-53.77L211.27-53.77Q211.45-53.66 211.45-53.44L211.45-53.44L211.45-46.90L211.45-46.90Q213.54-46.11 215.55-45.31L215.55-45.31L215.55-45.31Q217.56-44.52 219.54-43.87L219.54-43.87L219.54-43.87Q221.53-43.21 223.52-42.82L223.52-42.82L223.52-42.82Q225.50-42.42 227.60-42.42L227.60-42.42L227.60-42.42Q228.29-42.42 228.99-42.60L228.99-42.60L228.99-42.60Q229.70-42.78 230.26-43.12L230.26-43.12L230.26-43.12Q230.82-43.47 231.16-44.01L231.16-44.01L231.16-44.01Q231.50-44.55 231.50-45.27L231.50-45.27L231.50-45.27Q231.50-46.43 230.89-47.12L230.89-47.12L230.89-47.12Q230.27-47.80 229.59-48.31L229.59-48.31ZM228.32-17.85L228.32-17.85L228.32-17.85Q228.79-17.74 228.79-17.24L228.79-17.24L228.79-17.24Q228.79-17.09 228.70-16.86L228.70-16.86L228.70-16.86Q228.61-16.62 228.49-16.39L228.49-16.39L228.49-16.39Q228.36-16.15 228.21-15.99L228.21-15.99L228.21-15.99Q228.07-15.83 227.96-15.83L227.96-15.83L227.96-15.83Q227.78-15.83 227.53-15.95L227.53-15.95L227.53-15.95Q227.28-16.08 226.81-16.24L226.81-16.24L226.81-16.24Q226.34-16.40 225.58-16.53L225.58-16.53L225.58-16.53Q224.82-16.66 223.59-16.66L223.59-16.66L223.59-16.66Q221.86-16.66 220.70-16.01L220.70-16.01L220.70-16.01Q219.54-15.36 219.54-14.20L219.54-14.20L219.54-14.20Q219.54-13.37 220.25-12.81L220.25-12.81L220.25-12.81Q220.95-12.25 221.91-11.92L221.91-11.92L221.91-11.92Q222.87-11.60 223.86-11.45L223.86-11.45L223.86-11.45Q224.85-11.31 225.40-11.31L225.40-11.31L225.40-11.31Q225.79-11.31 225.92-11.18L225.92-11.18L225.92-11.18Q226.05-11.06 226.05-10.95L226.05-10.95L226.05-10.95Q226.05-10.66 225.81-10.60L225.81-10.60L225.81-10.60Q225.58-10.55 225.22-10.44L225.22-10.44L225.22-10.44Q224.28-10.12 223.30-9.63L223.30-9.63L223.30-9.63Q222.33-9.14 221.51-8.47L221.51-8.47L221.51-8.47Q220.70-7.80 220.19-6.97L220.19-6.97L220.19-6.97Q219.69-6.14 219.69-5.17L219.69-5.17L219.69-5.17Q219.69-3.54 221.01-2.48L221.01-2.48L221.01-2.48Q222.33-1.41 224.71-1.41L224.71-1.41L224.71-1.41Q227.42-1.41 229.23-2.22L229.23-2.22L229.23-2.22Q231.03-3.04 232.21-4.12L232.21-4.12L232.21-4.12Q233.38-5.20 234.03-6.31L234.03-6.31L234.03-6.31Q234.68-7.41 235.01-7.99L235.01-7.99L235.22-7.84L235.22-7.84Q234.61-6.07 233.65-4.55L233.65-4.55L233.65-4.55Q232.70-3.04 231.34-1.93L231.34-1.93L231.34-1.93Q229.99-0.83 228.18-0.20L228.18-0.20L228.18-0.20Q226.37 0.43 224.06 0.43L224.06 0.43L224.06 0.43Q222.65 0.43 221.46 0.09L221.46 0.09L221.46 0.09Q220.27-0.25 219.40-0.87L219.40-0.87L219.40-0.87Q218.53-1.48 218.06-2.38L218.06-2.38L218.06-2.38Q217.59-3.29 217.59-4.44L217.59-4.44L217.59-4.44Q217.59-5.78 218.21-6.76L218.21-6.76L218.21-6.76Q218.82-7.73 219.62-8.36L219.62-8.36L219.62-8.36Q220.41-9.00 221.19-9.34L221.19-9.34L221.19-9.34Q221.96-9.68 222.29-9.83L222.29-9.83L222.29-9.83Q221.17-10.01 220.30-10.44L220.30-10.44L220.30-10.44Q219.58-10.84 218.96-11.54L218.96-11.54L218.96-11.54Q218.35-12.25 218.35-13.48L218.35-13.48L218.35-13.48Q218.35-14.60 218.89-15.52L218.89-15.52L218.89-15.52Q219.43-16.44 220.36-17.05L220.36-17.05L220.36-17.05Q221.28-17.67 222.49-18.01L222.49-18.01L222.49-18.01Q223.70-18.36 225.07-18.36L225.07-18.36L225.07-18.36Q225.87-18.36 226.68-18.25L226.68-18.25L226.68-18.25Q227.49-18.14 228.32-17.85ZM246.82-7.99L247.04-7.84L247.04-7.84Q246.79-7.12 246.25-5.89L246.25-5.89L246.25-5.89Q245.70-4.66 244.78-3.49L244.78-3.49L244.78-3.49Q243.86-2.31 242.54-1.48L242.54-1.48L242.54-1.48Q241.22-0.65 239.49-0.72L239.49-0.72L239.49-0.72Q237.93-0.83 236.89-1.63L236.89-1.63L236.89-1.63Q235.84-2.42 235.19-4.06L235.19-4.06L235.19-4.06Q234.54-5.71 234.25-8.22L234.25-8.22L234.25-8.22Q233.96-10.73 233.96-14.27L233.96-14.27L233.96-14.27Q233.96-17.67 234.14-20.40L234.14-20.40L234.14-20.40Q234.32-23.13 234.61-25.22L234.61-25.22L234.61-25.22Q232.95-25.15 231.70-25.15L231.70-25.15L231.70-25.15Q230.46-25.15 229.95-25.15L229.95-25.15L229.95-25.15Q228.90-25.15 227.87-25.29L227.87-25.29L227.87-25.29Q226.84-25.44 225.94-25.80L225.94-25.80L225.94-25.80Q225.04-26.16 224.28-26.76L224.28-26.76L224.28-26.76Q223.52-27.35 223.01-28.26L223.01-28.26L223.16-28.58L223.16-28.58Q223.19-28.51 223.50-28.24L223.50-28.24L223.50-28.24Q223.81-27.97 224.60-27.68L224.60-27.68L224.60-27.68Q225.40-27.39 226.77-27.15L226.77-27.15L226.77-27.15Q228.14-26.92 230.31-26.92L230.31-26.92L234.83-26.92L234.83-26.92Q235.41-30.17 236.00-31.78L236.00-31.78L236.00-31.78Q236.60-33.39 236.81-33.82L236.81-33.82L236.81-33.82Q237.10-34.43 237.66-34.87L237.66-34.87L237.66-34.87Q238.22-35.30 238.62-35.30L238.62-35.30L238.62-35.30Q239.38-35.30 239.85-33.86L239.85-33.86L239.85-33.86Q240.32-32.41 240.32-29.38L240.32-29.38L240.32-29.38Q240.32-28.83 240.28-28.24L240.28-28.24L240.28-28.24Q240.25-27.64 240.25-27.03L240.25-27.03L240.25-27.03Q241.98-27.06 243.55-27.10L243.55-27.10L243.55-27.10Q245.13-27.14 246.37-27.17L246.37-27.17L246.37-27.17Q247.62-27.21 248.47-27.24L248.47-27.24L248.47-27.24Q249.32-27.28 249.57-27.32L249.57-27.32L249.57-27.32Q249.75-27.32 250.18-27.35L250.18-27.35L250.18-27.35Q250.62-27.39 250.76-27.39L250.76-27.39L250.76-27.39Q251.34-27.39 251.34-27.03L251.34-27.03L251.34-27.03Q251.34-26.52 251.03-26.11L251.03-26.11L251.03-26.11Q250.73-25.69 249.79-25.62L249.79-25.62L249.79-25.62Q249.61-25.58 248.72-25.56L248.72-25.56L248.72-25.56Q247.83-25.55 246.50-25.51L246.50-25.51L246.50-25.51Q245.16-25.47 243.50-25.42L243.50-25.42L243.50-25.42Q241.84-25.37 240.10-25.29L240.10-25.29L240.10-25.29Q239.74-22.22 238.80-18.59L238.80-18.59L238.80-18.59Q237.86-14.96 236.16-10.80L236.16-10.80L236.16-10.80Q236.31-8.42 236.58-6.83L236.58-6.83L236.58-6.83Q236.85-5.24 237.32-4.28L237.32-4.28L237.32-4.28Q237.79-3.32 238.49-2.93L238.49-2.93L238.49-2.93Q239.20-2.53 240.17-2.53L240.17-2.53L240.17-2.53Q241.22-2.53 242.13-2.93L242.13-2.93L242.13-2.93Q243.03-3.32 243.77-3.92L243.77-3.92L243.77-3.92Q244.51-4.52 245.07-5.22L245.07-5.22L245.07-5.22Q245.63-5.93 246.01-6.54L246.01-6.54L246.01-6.54Q246.39-7.15 246.59-7.55L246.59-7.55L246.59-7.55Q246.79-7.95 246.82-7.99L246.82-7.99ZM238.69-25.29L238.69-25.29L238.69-25.29Q238.08-25.29 237.50-25.26L237.50-25.26L237.50-25.26Q236.92-25.22 236.31-25.22L236.31-25.22L236.31-25.22Q236.20-23.16 236.15-20.99L236.15-20.99L236.15-20.99Q236.09-18.83 236.09-16.87L236.09-16.87L236.09-12.79L236.09-12.79Q237.14-16.08 237.81-19.19L237.81-19.19L237.81-19.19Q238.48-22.29 238.69-25.29ZM236.45-26.92L236.45-26.92L236.45-26.92Q237.03-26.92 237.63-26.97L237.63-26.97L237.63-26.97Q238.22-27.03 238.84-27.03L238.84-27.03L238.84-28.26L238.84-28.26Q238.84-30.06 238.73-31.15L238.73-31.15L238.73-31.15Q238.62-32.23 238.49-32.83L238.49-32.83L238.49-32.83Q238.37-33.42 238.21-33.62L238.21-33.62L238.21-33.62Q238.04-33.82 237.93-33.82L237.93-33.82L237.93-33.82Q237.65-33.82 237.43-33.28L237.43-33.28L237.43-33.28Q237.21-32.74 237.03-31.81L237.03-31.81L237.03-31.81Q236.85-30.89 236.71-29.63L236.71-29.63L236.71-29.63Q236.56-28.36 236.45-26.92ZM247.37-15.03L247.37-15.03L247.37-15.03Q247.65-15.03 247.93-14.87L247.93-14.87L247.93-14.87Q248.20-14.71 248.40-14.53L248.40-14.53L248.40-14.53Q248.59-14.34 248.72-14.15L248.72-14.15L248.72-14.15Q248.85-13.95 248.85-13.91L248.85-13.91L248.85-13.91Q248.85-13.88 248.76-13.53L248.76-13.53L248.76-13.53Q248.67-13.19 248.54-12.39L248.54-12.39L248.54-12.39Q248.41-11.60 248.32-10.32L248.32-10.32L248.32-10.32Q248.23-9.03 248.23-7.12L248.23-7.12L248.23-7.12Q248.23-4.55 248.86-3.54L248.86-3.54L248.86-3.54Q249.50-2.53 250.40-2.53L250.40-2.53L250.40-2.53Q251.30-2.53 252.19-3.07L252.19-3.07L252.19-3.07Q253.07-3.61 253.87-4.48L253.87-4.48L253.87-4.48Q254.66-5.35 255.37-6.45L255.37-6.45L255.37-6.45Q256.07-7.55 256.62-8.67L256.62-8.67L256.83-8.53L256.83-8.53Q256.69-8.17 256.40-7.43L256.40-7.43L256.40-7.43Q256.11-6.68 255.68-5.82L255.68-5.82L255.68-5.82Q255.24-4.95 254.65-4.03L254.65-4.03L254.65-4.03Q254.05-3.11 253.27-2.37L253.27-2.37L253.27-2.37Q252.50-1.63 251.57-1.14L251.57-1.14L251.57-1.14Q250.65-0.65 249.57-0.65L249.57-0.65L249.57-0.65Q248.81-0.65 248.18-0.94L248.18-0.94L248.18-0.94Q247.55-1.23 247.06-2.01L247.06-2.01L247.06-2.01Q246.57-2.78 246.30-4.16L246.30-4.16L246.30-4.16Q246.03-5.53 246.03-7.70L246.03-7.70L246.03-7.70Q246.03-8.82 246.12-10.10L246.12-10.10L246.12-10.10Q246.21-11.38 246.37-12.48L246.37-12.48L246.37-12.48Q246.53-13.59 246.79-14.31L246.79-14.31L246.79-14.31Q247.04-15.03 247.37-15.03ZM248.23-23.99L248.23-23.99L248.23-23.99Q249.14-23.99 249.53-23.36L249.53-23.36L249.53-23.36Q249.93-22.73 249.93-21.82L249.93-21.82L249.93-21.82Q249.93-20.78 249.35-20.20L249.35-20.20L249.35-20.20Q248.77-19.62 247.94-19.62L247.94-19.62L247.94-19.62Q247.33-19.62 246.75-20.09L246.75-20.09L246.75-20.09Q246.17-20.56 246.17-21.61L246.17-21.61L246.17-21.61Q246.17-22.76 246.75-23.38L246.75-23.38L246.75-23.38Q247.33-23.99 248.23-23.99ZM267.71-12.50L267.71-12.50L267.71-12.50Q267.38-12.50 267.11-12.88L267.11-12.88L267.11-12.88Q266.84-13.26 266.41-13.69L266.41-13.69L266.41-13.69Q265.97-14.13 265.31-14.51L265.31-14.51L265.31-14.51Q264.64-14.89 263.55-14.89L263.55-14.89L263.55-14.89Q262.04-14.89 260.73-14.11L260.73-14.11L260.73-14.11Q259.43-13.33 258.49-12.16L258.49-12.16L258.49-12.16Q257.55-10.98 257.03-9.59L257.03-9.59L257.03-9.59Q256.51-8.20 256.51-6.97L256.51-6.97L256.51-6.97Q256.51-5.06 257.48-3.83L257.48-3.83L257.48-3.83Q258.46-2.60 260.08-2.60L260.08-2.60L260.08-2.60Q261.35-2.60 262.31-3.09L262.31-3.09L262.31-3.09Q263.26-3.58 263.91-4.37L263.91-4.37L263.91-4.37Q263.70-5.35 263.70-6.79L263.70-6.79L263.70-6.79Q263.70-8.35 263.93-9.32L263.93-9.32L263.93-9.32Q264.17-10.30 264.51-10.84L264.51-10.84L264.51-10.84Q264.85-11.38 265.21-11.58L265.21-11.58L265.21-11.58Q265.58-11.78 265.83-11.78L265.83-11.78L265.83-11.78Q266.12-11.78 266.50-11.38L266.50-11.38L266.50-11.38Q266.88-10.98 266.88-9.97L266.88-9.97L266.88-9.97Q266.88-8.71 266.43-7.32L266.43-7.32L266.43-7.32Q265.97-5.93 265.18-4.66L265.18-4.66L265.18-4.66Q265.61-3.54 266.52-3.04L266.52-3.04L266.52-3.04Q267.42-2.53 268.58-2.53L268.58-2.53L268.58-2.53Q269.59-2.53 270.47-2.98L270.47-2.98L270.47-2.98Q271.36-3.43 272.13-4.19L272.13-4.19L272.13-4.19Q272.91-4.95 273.60-5.94L273.60-5.94L273.60-5.94Q274.28-6.94 274.86-7.99L274.86-7.99L275.08-7.84L275.08-7.84Q274.65-6.47 273.92-5.17L273.92-5.17L273.92-5.17Q273.20-3.87 272.26-2.85L272.26-2.85L272.26-2.85Q271.32-1.84 270.22-1.25L270.22-1.25L270.22-1.25Q269.12-0.65 267.92-0.65L267.92-0.65L267.92-0.65Q267.02-0.65 265.96-1.25L265.96-1.25L265.96-1.25Q264.89-1.84 264.20-3.40L264.20-3.40L264.20-3.40Q263.08-2.06 261.64-1.17L261.64-1.17L261.64-1.17Q260.19-0.29 258.53-0.29L258.53-0.29L258.53-0.29Q257.59-0.29 256.83-0.72L256.83-0.72L256.83-0.72Q256.07-1.16 255.55-1.88L255.55-1.88L255.55-1.88Q255.03-2.60 254.74-3.58L254.74-3.58L254.74-3.58Q254.45-4.55 254.45-5.64L254.45-5.64L254.45-5.64Q254.45-7.48 255.26-9.32L255.26-9.32L255.26-9.32Q256.07-11.17 257.43-12.65L257.43-12.65L257.43-12.65Q258.78-14.13 260.54-15.05L260.54-15.05L260.54-15.05Q262.29-15.97 264.20-15.97L264.20-15.97L264.20-15.97Q265.61-15.97 266.57-15.66L266.57-15.66L266.57-15.66Q267.53-15.36 268.11-14.94L268.11-14.94L268.11-14.94Q268.68-14.53 268.94-14.09L268.94-14.09L268.94-14.09Q269.19-13.66 269.19-13.41L269.19-13.41L269.19-13.41Q269.19-12.90 268.67-12.70L268.67-12.70L268.67-12.70Q268.14-12.50 267.71-12.50ZM264.67-7.70L264.67-7.70L264.67-7.70Q264.67-6.50 264.89-5.64L264.89-5.64L264.89-5.64Q265.43-6.65 265.68-7.71L265.68-7.71L265.68-7.71Q265.94-8.78 265.94-9.54L265.94-9.54L265.94-9.54Q265.94-10.44 265.61-10.44L265.61-10.44L265.61-10.44Q265.29-10.44 264.98-9.65L264.98-9.65L264.98-9.65Q264.67-8.85 264.67-7.70ZM275.98-16.12L275.98-16.12L275.98-16.12Q276.16-16.12 276.27-15.83L276.27-15.83L276.27-15.83Q276.38-15.54 276.43-15.14L276.43-15.14L276.43-15.14Q276.49-14.74 276.49-14.29L276.49-14.29L276.49-14.29Q276.49-13.84 276.49-13.48L276.49-13.48L276.49-13.48Q276.49-12.54 276.43-11.54L276.43-11.54L276.43-11.54Q276.38-10.55 276.33-9.63L276.33-9.63L276.33-9.63Q276.27-8.71 276.24-7.93L276.24-7.93L276.24-7.93Q276.20-7.15 276.20-6.65L276.20-6.65L276.20-6.65Q276.20-5.71 276.27-5.15L276.27-5.15L276.27-5.15Q276.34-4.59 276.63-4.59L276.63-4.59L276.63-4.59Q276.81-4.59 277.10-5.06L277.10-5.06L277.10-5.06Q277.39-5.53 277.73-6.20L277.73-6.20L277.73-6.20Q278.08-6.87 278.40-7.62L278.40-7.62L278.40-7.62Q278.73-8.38 279.02-8.96L279.02-8.96L279.02-8.96Q279.38-9.72 279.83-10.64L279.83-10.64L279.83-10.64Q280.28-11.56 280.79-12.38L280.79-12.38L280.79-12.38Q281.29-13.19 281.85-13.73L281.85-13.73L281.85-13.73Q282.41-14.27 283.03-14.27L283.03-14.27L283.03-14.27Q283.43-14.27 283.73-14.06L283.73-14.06L283.73-14.06Q284.04-13.84 284.26-13.50L284.26-13.50L284.26-13.50Q284.47-13.15 284.60-12.77L284.60-12.77L284.60-12.77Q284.73-12.39 284.80-12.07L284.80-12.07L284.80-12.07Q284.91-11.24 285.03-9.45L285.03-9.45L285.03-9.45Q285.16-7.66 285.38-5.64L285.38-5.64L285.38-5.64Q285.56-3.61 286.35-2.69L286.35-2.69L286.35-2.69Q287.15-1.77 288.41-1.77L288.41-1.77L288.41-1.77Q288.92-1.77 289.23-1.84L289.23-1.84L289.23-1.84Q289.53-1.92 289.75-1.92L289.75-1.92L289.75-1.92Q289.93-1.92 289.82-1.55L289.82-1.55L289.82-1.55Q289.79-1.48 289.66-1.35L289.66-1.35L289.66-1.35Q289.53-1.23 289.24-1.08L289.24-1.08L289.24-1.08Q288.95-0.94 288.47-0.83L288.47-0.83L288.47-0.83Q287.98-0.72 287.29-0.72L287.29-0.72L287.29-0.72Q286.14-0.72 285.38-1.10L285.38-1.10L285.38-1.10Q284.62-1.48 284.15-2.31L284.15-2.31L284.15-2.31Q283.68-3.14 283.46-4.46L283.46-4.46L283.46-4.46Q283.25-5.78 283.17-7.62L283.17-7.62L283.17-7.62Q283.10-8.49 283.05-9.30L283.05-9.30L283.05-9.30Q282.99-10.12 282.87-10.75L282.87-10.75L282.87-10.75Q282.74-11.38 282.52-11.76L282.52-11.76L282.52-11.76Q282.31-12.14 281.91-12.14L281.91-12.14L281.91-12.14Q281.58-12.14 281.13-11.49L281.13-11.49L281.13-11.49Q280.68-10.84 280.25-9.95L280.25-9.95L280.25-9.95Q279.81-9.07 279.43-8.13L279.43-8.13L279.43-8.13Q279.05-7.19 278.80-6.65L278.80-6.65L278.80-6.65Q278.01-4.95 277.48-3.87L277.48-3.87L277.48-3.87Q276.96-2.78 276.34-1.77L276.34-1.77L276.34-1.77Q276.16-1.48 275.96-1.30L275.96-1.30L275.96-1.30Q275.77-1.12 275.48-1.12L275.48-1.12L275.48-1.12Q275.04-1.12 274.79-1.84L274.79-1.84L274.79-1.84Q274.54-2.57 274.41-3.50L274.41-3.50L274.41-3.50Q274.28-4.44 274.25-5.40L274.25-5.40L274.25-5.40Q274.21-6.36 274.21-6.87L274.21-6.87L274.21-6.87Q274.21-7.44 274.23-8.27L274.23-8.27L274.23-8.27Q274.25-9.11 274.28-9.90L274.28-9.90L274.28-9.90Q274.32-10.70 274.34-11.35L274.34-11.35L274.34-11.35Q274.36-12.00 274.36-12.21L274.36-12.21L274.36-12.21Q274.36-12.43 274.34-12.81L274.34-12.81L274.34-12.81Q274.32-13.19 274.32-13.57L274.32-13.57L274.32-13.57Q274.32-13.95 274.30-14.25L274.30-14.25L274.30-14.25Q274.28-14.56 274.28-14.67L274.28-14.67L274.28-14.67Q274.28-14.96 274.45-15.16L274.45-15.16L274.45-15.16Q274.61-15.36 274.79-15.46L274.79-15.46L274.79-15.46Q274.97-15.57 275.37-15.84L275.37-15.84L275.37-15.84Q275.77-16.12 275.98-16.12ZM302.72-12.50L302.72-12.50L302.72-12.50Q302.40-12.50 302.12-12.88L302.12-12.88L302.12-12.88Q301.85-13.26 301.42-13.69L301.42-13.69L301.42-13.69Q300.99-14.13 300.32-14.51L300.32-14.51L300.32-14.51Q299.65-14.89 298.57-14.89L298.57-14.89L298.57-14.89Q297.05-14.89 295.75-14.11L295.75-14.11L295.75-14.11Q294.45-13.33 293.51-12.16L293.51-12.16L293.51-12.16Q292.57-10.98 292.04-9.59L292.04-9.59L292.04-9.59Q291.52-8.20 291.52-6.97L291.52-6.97L291.52-6.97Q291.52-5.06 292.50-3.83L292.50-3.83L292.50-3.83Q293.47-2.60 295.10-2.60L295.10-2.60L295.10-2.60Q296.36-2.60 297.32-3.09L297.32-3.09L297.32-3.09Q298.28-3.58 298.93-4.37L298.93-4.37L298.93-4.37Q298.71-5.35 298.71-6.79L298.71-6.79L298.71-6.79Q298.71-8.35 298.94-9.32L298.94-9.32L298.94-9.32Q299.18-10.30 299.52-10.84L299.52-10.84L299.52-10.84Q299.87-11.38 300.23-11.58L300.23-11.58L300.23-11.58Q300.59-11.78 300.84-11.78L300.84-11.78L300.84-11.78Q301.13-11.78 301.51-11.38L301.51-11.38L301.51-11.38Q301.89-10.98 301.89-9.97L301.89-9.97L301.89-9.97Q301.89-8.71 301.44-7.32L301.44-7.32L301.44-7.32Q300.99-5.93 300.19-4.66L300.19-4.66L300.19-4.66Q300.63-3.54 301.53-3.04L301.53-3.04L301.53-3.04Q302.43-2.53 303.59-2.53L303.59-2.53L303.59-2.53Q304.60-2.53 305.48-2.98L305.48-2.98L305.48-2.98Q306.37-3.43 307.15-4.19L307.15-4.19L307.15-4.19Q307.92-4.95 308.61-5.94L308.61-5.94L308.61-5.94Q309.30-6.94 309.88-7.99L309.88-7.99L310.09-7.84L310.09-7.84Q309.66-6.47 308.94-5.17L308.94-5.17L308.94-5.17Q308.21-3.87 307.27-2.85L307.27-2.85L307.27-2.85Q306.33-1.84 305.23-1.25L305.23-1.25L305.23-1.25Q304.13-0.65 302.94-0.65L302.94-0.65L302.94-0.65Q302.03-0.65 300.97-1.25L300.97-1.25L300.97-1.25Q299.90-1.84 299.22-3.40L299.22-3.40L299.22-3.40Q298.10-2.06 296.65-1.17L296.65-1.17L296.65-1.17Q295.21-0.29 293.54-0.29L293.54-0.29L293.54-0.29Q292.60-0.29 291.84-0.72L291.84-0.72L291.84-0.72Q291.09-1.16 290.56-1.88L290.56-1.88L290.56-1.88Q290.04-2.60 289.75-3.58L289.75-3.58L289.75-3.58Q289.46-4.55 289.46-5.64L289.46-5.64L289.46-5.64Q289.46-7.48 290.27-9.32L290.27-9.32L290.27-9.32Q291.09-11.17 292.44-12.65L292.44-12.65L292.44-12.65Q293.80-14.13 295.55-15.05L295.55-15.05L295.55-15.05Q297.30-15.97 299.22-15.97L299.22-15.97L299.22-15.97Q300.63-15.97 301.58-15.66L301.58-15.66L301.58-15.66Q302.54-15.36 303.12-14.94L303.12-14.94L303.12-14.94Q303.70-14.53 303.95-14.09L303.95-14.09L303.95-14.09Q304.20-13.66 304.20-13.41L304.20-13.41L304.20-13.41Q304.20-12.90 303.68-12.70L303.68-12.70L303.68-12.70Q303.15-12.50 302.72-12.50ZM299.69-7.70L299.69-7.70L299.69-7.70Q299.69-6.50 299.90-5.64L299.90-5.64L299.90-5.64Q300.44-6.65 300.70-7.71L300.70-7.71L300.70-7.71Q300.95-8.78 300.95-9.54L300.95-9.54L300.95-9.54Q300.95-10.44 300.63-10.44L300.63-10.44L300.63-10.44Q300.30-10.44 299.99-9.65L299.99-9.65L299.99-9.65Q299.69-8.85 299.69-7.70Z" fill="#000000"></path></g></g><style>text {
  font-size: 64px;
  font-family: Arial Black;
  dominant-baseline: central;
  text-anchor: middle;
}</style></svg>